***************************************************************

[IMG]http://www.hotimg.org/images/67363952943939111394.png[/IMG]

***************************************************************

[IMG]http://www.hotimg.org/images/07964796533951254477.jpg[/IMG]

***************************************************************

FILM TITLE: A Monster in Paris (2011)  Un monstre à Paris (original title)

***************************************************************

Genre:  Animation | Adventure | Comedy    

Release:  12 October 2011 (Belgium)

Director: Bibo Bergeron

Writer: Bibo Bergeron, Stéphane Kazandjian (screenplay)

Stars:  Mathieu Chedid, Vanessa Paradis and Gad Elmaleh

Country:  France

Language:  French

Plot:
A animated movie set in Paris in the year 1910 and centered on a 
monster who lives in a garden and his love for a beautiful, young singer. Paris.
 	
IMDB Rating: http://www.imdb.com/title/tt0961097/
 
http://www.imdb.com/title/tt0961097/

****************************************************************

[URL=http://www.hotimg.org/viewer.php?file=34077992761641486430.png][IMG]http://www.hotimg.org/images/34077992761641486430_thumb.png[/IMG][/URL]
[URL=http://www.hotimg.org/viewer.php?file=95473096121293405836.png][IMG]http://www.hotimg.org/images/95473096121293405836_thumb.png[/IMG][/URL]
[URL=http://www.hotimg.org/viewer.php?file=08209488217101046166.png][IMG]http://www.hotimg.org/images/08209488217101046166_thumb.png[/IMG][/URL]
[URL=http://www.hotimg.org/viewer.php?file=35532679450430896022.png][IMG]http://www.hotimg.org/images/35532679450430896022_thumb.png[/IMG][/URL]
[URL=http://www.hotimg.org/viewer.php?file=01381942826394364567.png][IMG]http://www.hotimg.org/images/01381942826394364567_thumb.png[/IMG][/URL]

****************************************************************

General
Complete name                    : A Monster In Paris 2011 720p BDRip XviD ac3 (avi) [GREYSHADOW].avi
Format                           : AVI
Format/Info                      : Audio Video Interleave
Format profile                   : OpenDML
File size                        : 3.55 GiB
Duration                         : 1h 29mn
Overall bit rate                 : 5646 Kbps
Writing library                  : VirtualDub build 32842/release

Video
ID                               : 0
Format                           : MPEG-4 Visual
Format profile                   : Simple@L5
Format settings, BVOP            : No
Format settings, QPel            : No
Format settings, GMC             : No warppoints
Format settings, Matrix          : Default (H.263)
Codec ID                         : XVID
Codec ID/Hint                    : XviD
Duration                         : 1h 29mn
Bit rate                         : 4996 Kbps
Width                            : 1280 pixels
Height                           : 688 pixels
Display aspect ratio             : 1.860
Frame rate                       : 23.976 fps
Color space                      : YUV
Chroma subsampling               : 4:2:0
Bit depth                        : 8 bits
Scan type                        : Progressive
Compression mode                 : Lossy
Bits/(Pixel*Frame)               : 0.237
Stream size                      : 3.14 GiB (88%)
Writing library                  : XviD 64

Audio
ID                               : 1
Format                           : AC-3
Format/Info                      : Audio Coding 3
Mode extension                   : CM (complete main)
Codec ID                         : 2000
Duration                         : 1h 29mn
Bit rate mode                    : Constant
Bit rate                         : 640 Kbps
Channel(s)                       : 6 channels
Channel positions                : Front: L C R, Side: L R, LFE
Sampling rate                    : 48.0 KHz
Bit depth                        : 16 bits
Compression mode                 : Lossy
Stream size                      : 412 MiB (11%)
Alignment                        : Aligned on interleaves
Interleave, duration             : 42 ms (1.00 video frame)
Interleave, preload duration     : 512 ms

****************************************************************

Video Source: A Monster In Paris (2011) Blu-ray 1080p AVC DTS-HD5.1 (26.54GB)

Thanks: avproh (hdclub.org)

****************************************************************

I provide a small sample, so please download this to check your 
compatibility first if you are unsure.

****************************************************************

Hash: 4EEDBED602A2977258804ABF968A79EACCE65823

Trackers:
.udp://tracker.1337x.org:80/announce

****************************************************************